<svg height="500" viewBox="0 0 500 500" width="500" xmlns="http://www.w3.org/2000/svg"><g fill="none"><rect fill="#ed6a15" height="500" rx="49.050633" width="500"/><g fill="#fff"><path d="m239.21732 375.5h48.337141v-251h-43.682883c-7.737755 21.376769-22.188394 32.897928-35.221573 37.324729v48.011234c.903498 0 10.058882 0 30.567315-17.023636z"/><path d="m169.62792 124.5 37.332097 251h-66.76404l-3.253004-45.114886h-23.39065l-3.872624 45.114886h-67.538565l33.1496626-251zm-44.457724 56.122298c-6.411033 46.518693-10.489993 80.929498-12.236996 103.233376l-.155401 2.03469h22.306314c-3.050451-26.236649-6.10086-58.153176-9.151306-95.75041z"/><path d="m65.6087534 251v-55.591053h-65.6087534v-42.265857l42.6766434-153.14309h70.6008666v157.128752h27.792506v38.280195h-29.35995v55.591053zm-29.9123137-93.335743h31.4797583v-118.0455931z" transform="translate(315.544589 124.5)"/></g></g></svg>