<svg viewBox="0 0 600 337" xmlns="http://www.w3.org/2000/svg"><clipPath id="default-a"><path d="M381.2 188.6c-11.1 0-20.3-9.2-20.3-20.3 0-11.2 9.2-20.3 20.3-20.3 11.2 0 20.3 9.1 20.3 20.3 0 11.1-9.1 20.3-20.3 20.3zm-81 0c-11.1 0-20.3-9.2-20.3-20.3 0-11.2 9.2-20.3 20.3-20.3 11.2 0 20.3 9.1 20.3 20.3.1 11.1-9 20.3-20.3 20.3zm-80.9 0c-11.1 0-20.3-9.2-20.3-20.3 0-11.2 9.2-20.3 20.3-20.3 11.2 0 20.3 9.1 20.3 20.3 0 11.1-9 20.3-20.3 20.3z"/></clipPath><clipPath id="default-b"><path d="M0 0h600v337H0z"/></clipPath><g clip-path="url(#default-a)"><path clip-path="url(#default-b)" d="M194 143h212.5v50.6H194z"/></g></svg>